<svg version="1.1" id="Icons" xmlns="http://www.w3.org/2000/svg" xmlns:xlink="http://www.w3.org/1999/xlink" x="0px" y="0px" viewBox="0 0 32 32" style="enable-background:new 0 0 32 32;" xml:space="preserve">
<style type="text/css">
	.st0{fill:none;stroke:#000000;stroke-width:2;stroke-linecap:round;stroke-linejoin:round;stroke-miterlimit:10;}
</style>
<g>
<circle cx="16" cy="16" r="8" id="id_101" style="fill: rgb(255, 255, 255);"></circle>
<path d="M31.6,19.2c-1.1-0.7-1.7-1.9-1.7-3.2s0.6-2.5,1.7-3.2c0.3-0.2,0.5-0.7,0.4-1.1S31.5,11,31.1,11c-1.3-0.1-2.4-0.8-3-1.9
		c-0.6-1.1-0.7-2.4-0.2-3.6c0.2-0.4,0.1-0.8-0.2-1.1c-0.3-0.3-0.7-0.4-1.1-0.2c-1.2,0.5-2.5,0.5-3.6-0.2c-1.1-0.6-1.8-1.8-1.9-3
		c0-0.4-0.3-0.8-0.7-0.9c-0.4-0.1-0.8,0-1.1,0.4c-0.7,1.1-1.9,1.7-3.2,1.7s-2.5-0.6-3.2-1.7c-0.2-0.3-0.7-0.5-1.1-0.4
		C11.3,0.1,11,0.5,11,0.9c-0.1,1.3-0.8,2.4-1.9,3C7.9,4.6,6.6,4.6,5.4,4.1C5.1,3.9,4.6,4,4.3,4.3C4,4.6,3.9,5.1,4.1,5.4
		C4.7,6.6,4.6,7.9,3.9,9c-0.6,1.1-1.8,1.8-3,1.9c-0.4,0-0.8,0.3-0.9,0.7s0,0.8,0.4,1.1c1.1,0.7,1.7,1.9,1.7,3.2s-0.6,2.5-1.7,3.2
		c-0.3,0.2-0.5,0.7-0.4,1.1S0.5,21,0.9,21c1.3,0.1,2.4,0.8,3,1.9c0.6,1.1,0.7,2.4,0.2,3.6c-0.2,0.4-0.1,0.8,0.2,1.1
		c0.3,0.3,0.7,0.4,1.1,0.2c1.2-0.5,2.5-0.5,3.6,0.2c1.1,0.6,1.8,1.8,1.9,3c0,0.4,0.3,0.8,0.7,0.9c0.4,0.1,0.8,0,1.1-0.4
		c0.7-1.1,1.9-1.7,3.2-1.7s2.5,0.6,3.2,1.7c0.2,0.3,0.5,0.4,0.8,0.4c0.1,0,0.2,0,0.3,0c0.4-0.1,0.7-0.5,0.7-0.9
		c0.1-1.3,0.8-2.4,1.9-3c1.1-0.6,2.4-0.7,3.6-0.2c0.4,0.2,0.8,0.1,1.1-0.2c0.3-0.3,0.4-0.7,0.2-1.1c-0.5-1.2-0.5-2.5,0.2-3.6
		c0.6-1.1,1.8-1.8,3-1.9c0.4,0,0.8-0.3,0.9-0.7S31.9,19.4,31.6,19.2z M16,26c-5.5,0-10-4.5-10-10S10.5,6,16,6s10,4.5,10,10
		S21.5,26,16,26z" id="id_102" style="fill: rgb(0, 0, 0);"></path>
</g>
</svg>